# xmcd
#
# Track frame offsets:
#	150
#	11748
#	28655
#	45845
#	66560
#	80055
#	94418
#	118198
#	129785
#	142320
#	157933
#	172580
#	185838
#	200720
#	215860
#	235558
#	252990
#	265858
#	280810
#	292830
#
# Disc length: 4122 seconds
#
# Revision: 1
# Processed by: cddbd v1.5.1PL0 Copyright (c) Steve Scherf et al.
# Submitted via: audiograbber 1.83.01
#
DISCID=29101814
DTITLE=Various Artist - Country Collection: Vol. 1, Disc 6
DYEAR=1900
DGENRE=Country
TTITLE0=Highway 101 - Walkin', Talkin', Cryin', Barely Beatin' Broken Heart
TTITLE1=Kathy Mattea - Where've You Been
TTITLE2=Travis Tritt - Anymore
TTITLE3=Hank Williams Jr. - Be Careful Who You Love (Arthur's Song)
TTITLE4=Brooks and Dunn - Brand New Man
TTITLE5=Pam Tillis - Don't Tell Me What to Do
TTITLE6=Travis Tritt - Drift Off to Dream
TTITLE7=Travis Tritt - Here's A Quarter (Call Someone Who Cares)
TTITLE8=Joe Diffie - If the Devil Danced (In Empty Pockets)
TTITLE9=Doug Stone - In A Different Light
TTITLE10=Diamond Rio - Meet in the Middle
TTITLE11=Brooks and Dunn - My Next Broken Heart
TTITLE12=Brooks and Dunn - Boot Scootin' Boogie
TTITLE13=Rodney Crowell - Lovin' All Night
TTITLE14=Brooks and Dunn - Neon Moon
TTITLE15=Travis Tritt - Nothing Short of Dying
TTITLE16=Garth Brooks - Papa Loved Mama
TTITLE17=McBride and The Ride - Sacred Ground
TTITLE18=Trisha Yearwood - That's What I Like About You
TTITLE19=Steve Wariner - Tips of My Fingers
EXTD=1993 CD Tree Productions DIDX 015553
EXTT0=1990
EXTT1=1990
EXTT2=1991
EXTT3=1991
EXTT4=1991
EXTT5=1991
EXTT6=1991
EXTT7=1991
EXTT8=1991
EXTT9=1991
EXTT10=1991
EXTT11=1991
EXTT12=1992
EXTT13=1992
EXTT14=1992
EXTT15=1992
EXTT16=1992
EXTT17=1992
EXTT18=1992
EXTT19=1992
PLAYORDER=
